<?xml version="1.0" encoding="UTF-8" standalone="no" ?>
<!DOCTYPE svg PUBLIC "-//W3C//DTD SVG 1.1//EN" "http://www.w3.org/Graphics/SVG/1.1/DTD/svg11.dtd">
<svg xmlns="http://www.w3.org/2000/svg" xmlns:xlink="http://www.w3.org/1999/xlink" version="1.1" width="1080" height="1080" viewBox="0 0 1080 1080" xml:space="preserve">
<desc>Created with Fabric.js 5.2.4</desc>
<defs>
</defs>
<g transform="matrix(1 0 0 1 540 540)" id="9a93dc50-2244-4454-8327-d68a7b720791"  >
<rect style="stroke: none; stroke-width: 1; stroke-dasharray: none; stroke-linecap: butt; stroke-dashoffset: 0; stroke-linejoin: miter; stroke-miterlimit: 4; fill: rgb(255,255,255); fill-rule: nonzero; opacity: 1; visibility: hidden;" vector-effect="non-scaling-stroke"  x="-540" y="-540" rx="0" ry="0" width="1080" height="1080" />
</g>
<g transform="matrix(1 0 0 1 540 540)" id="ff492c30-b952-4f60-82ef-feb94a45a531"  >
</g>
<g transform="matrix(45 0 0 45 540 540)" id="SVGRepo_iconCarrier"  >
<path style="stroke: rgb(186,186,186); stroke-width: 1; stroke-dasharray: none; stroke-linecap: butt; stroke-dashoffset: 0; stroke-linejoin: miter; stroke-miterlimit: 4; fill: rgb(124,124,124); fill-rule: nonzero; opacity: 1;"  transform=" translate(-12.33, -12.03)" d="M 21.66 12 C 21.661677258428877 12.772931469681865 21.217827368570447 13.477640505334284 20.52 13.81 L 5.87 20.75 C 5.601869586859609 20.896191408092413 5.304836491829249 20.981545745744814 5 21 C 4.322224668026496 20.998587143312527 3.6912839571203477 20.654003747167827 3.3237509506284795 20.084529528317788 C 2.9562179441366108 19.51505530946775 2.902110037547806 18.798189748834556 3.18 18.18 L 5.46 13 L 11 13 C 11.552284749830793 13 12 12.552284749830793 12 12 C 12 11.447715250169207 11.552284749830793 11 11 11 L 5.46 11 L 3.18 5.87 C 2.8416732299234604 5.10656701533352 3.013266298045115 4.213287093073386 3.6103763012945986 3.6295452242250095 C 4.207486304544083 3.0458033553766333 5.104421919769345 2.89447687824538 5.859999999999999 3.25 L 5.86 3.25 L 20.51 10.190000000000001 C 21.21172494395883 10.519468930956958 21.65985010458491 11.224778966377132 21.66 12 Z" stroke-linecap="round" />
</g>
<g transform="matrix(45 0 0 45 540 540)" id="SVGRepo_iconCarrier"  >
<path style="stroke: rgb(116,116,116); stroke-width: 1; stroke-dasharray: none; stroke-linecap: butt; stroke-dashoffset: 0; stroke-linejoin: miter; stroke-miterlimit: 4; fill: rgb(116,116,116); fill-rule: nonzero; opacity: 1;"  transform=" translate(-12.33, -12.03)" d="M 21.66 12 C 21.661677258428877 12.772931469681865 21.217827368570447 13.477640505334284 20.52 13.81 L 5.87 20.75 C 5.601869586859609 20.896191408092413 5.304836491829249 20.981545745744814 5 21 C 4.322224668026496 20.998587143312527 3.6912839571203477 20.654003747167827 3.3237509506284795 20.084529528317788 C 2.9562179441366108 19.51505530946775 2.902110037547806 18.798189748834556 3.18 18.18 L 5.46 13 L 11 13 C 11.552284749830793 13 12 12.552284749830793 12 12 C 12 11.447715250169207 11.552284749830793 11 11 11 L 5.46 11 L 3.18 5.87 C 2.8416732299234604 5.10656701533352 3.013266298045115 4.213287093073386 3.6103763012945986 3.6295452242250095 C 4.207486304544083 3.0458033553766333 5.104421919769345 2.89447687824538 5.859999999999999 3.25 L 5.86 3.25 L 20.51 10.190000000000001 C 21.21172494395883 10.519468930956958 21.65985010458491 11.224778966377132 21.66 12 Z" stroke-linecap="round" />
</g>
<g transform="matrix(NaN NaN NaN NaN 0 0)"  >
<g style=""   >
</g>
</g>
<g transform="matrix(NaN NaN NaN NaN 0 0)"  >
<g style=""   >
</g>
</g>
</svg>